<svg width="2804" height="780" viewBox="0 0 2804 780" fill="none" xmlns="http://www.w3.org/2000/svg">
<path d="M0 60C0 26.8629 26.8629 0 60 0H2744C2777.14 0 2804 26.8629 2804 60V720C2804 753.137 2777.14 780 2744 780H60C26.8629 780 0 753.137 0 720V60Z" fill="white"/>
<path fill-rule="evenodd" clip-rule="evenodd" d="M176 140H604C623.9 140 640 156.1 640 176V604C640 623.9 623.9 640 604 640H176C156.1 640 140 623.9 140 604V176C140 156.1 156.1 140 176 140Z" fill="#03A9F4"/>
<g filter="url(#filter0_d_449_245)">
<path fill-rule="evenodd" clip-rule="evenodd" d="M397.5 560L426.6 531H453.4C455.5 536.8 461 541 467.6 541C475.9 541 482.6 534.3 482.6 526C482.6 517.7 475.9 511 467.6 511C461.1 511 455.5 515.2 453.4 521H422.4L395.4 547.9V515L427.5 482.9H479.4C481.5 488.7 487 492.9 493.6 492.9C501.9 492.9 508.6 486.2 508.6 477.9C508.6 469.6 501.9 462.9 493.6 462.9C487.1 462.9 481.5 467.1 479.4 472.9H437.5L467.5 443V418L489.1 396.5C491.1 397.4 493.3 398 495.6 398C503.9 398 510.6 391.3 510.6 383C510.6 374.7 503.9 368 495.6 368C487.3 368 480.6 374.7 480.6 383C480.6 385.3 481.1 387.5 482.1 389.5L467.6 404V358.2C473.4 356.1 477.6 350.6 477.6 344.1C477.6 335.8 470.9 329.1 462.6 329.1C454.3 329.1 447.6 335.8 447.6 344.1C447.6 350.6 451.8 356.2 457.6 358.2V404L443.1 389.5C444 387.5 444.6 385.3 444.6 383C444.6 374.7 437.9 368 429.6 368C421.3 368 414.6 374.7 414.6 383C414.6 391.3 421.3 398 429.6 398C431.9 398 434.1 397.5 436.1 396.5L457.7 418V438.9L430.7 465.9V446.1C436.5 444 440.7 438.5 440.7 432C440.7 423.7 434 417 425.7 417C417.4 417 410.7 423.7 410.7 432C410.7 438.5 414.9 444.1 420.7 446.1V475.9L395.7 500.9V354.1L416.3 333.6C418.3 334.5 420.5 335.1 422.8 335.1C431.1 335.1 437.8 328.4 437.8 320.1C437.8 311.8 431.1 305.1 422.8 305.1C414.5 305.1 407.8 311.8 407.8 320.1C407.8 322.4 408.3 324.6 409.3 326.6L390.8 345.1L372.3 326.6C373.2 324.6 373.8 322.4 373.8 320.1C373.8 311.8 367.1 305.1 358.8 305.1C350.5 305.1 343.8 311.8 343.8 320.1C343.8 328.4 350.5 335.1 358.8 335.1C361.1 335.1 363.3 334.6 365.3 333.6L385.9 354.1V459L349.8 423V394.2C355.6 392.1 359.8 386.6 359.8 380.1C359.8 371.8 353.1 365.1 344.8 365.1C336.5 365.1 329.8 371.8 329.8 380.1C329.8 386.6 334 392.2 339.8 394.2V413L311.7 385V357.2C317.5 355.1 321.7 349.6 321.7 343.1C321.7 334.8 315 328.1 306.7 328.1C298.4 328.1 291.7 334.8 291.7 343.1C291.7 349.6 295.9 355.2 301.7 357.2V389.1L332.7 420H314.9C312.8 414.2 307.3 410 300.7 410C292.4 410 285.7 416.7 285.7 425C285.7 433.3 292.4 440 300.7 440C307.2 440 312.8 435.8 314.9 430H342.7L385.8 473.1V548L362.8 525V496.2C368.6 494.1 372.8 488.6 372.8 482.1C372.8 473.8 366.1 467.1 357.8 467.1C349.5 467.1 342.8 473.8 342.8 482.1C342.8 488.6 347 494.2 352.8 496.2V515L319.3 481.5C320.2 479.5 320.8 477.3 320.8 475C320.8 466.7 314.1 460 305.8 460C297.5 460 290.8 466.7 290.8 475C290.8 483.3 297.5 490 305.8 490C308.1 490 310.3 489.5 312.3 488.5L345.8 522H328C325.9 516.2 320.4 512 313.8 512C305.5 512 298.8 518.7 298.8 527C298.8 535.3 305.5 542 313.8 542C320.3 542 325.9 537.8 328 532H355.8L383.9 560H244.5C240.2 560 236.7 556.5 236.7 552.2V419H201.3C196.1 419 192 414.8 192 409.7C192 407.2 193 404.9 194.7 403.1L382.2 213.4C386.7 208.8 394.1 208.8 398.7 213.3L398.8 213.4L496.7 312V293.8C496.7 289.5 500.2 286 504.5 286H537C541.3 286 544.8 289.5 544.8 293.8V360.7L586.4 403.1C590 406.8 590 412.7 586.3 416.3C584.6 418 582.2 419 579.8 419H544.9V552.2C544.9 556.5 541.4 560 537.1 560H397.5ZM313.3 533C310 533 307.3 530.3 307.3 527C307.3 523.7 310 521 313.3 521C316.6 521 319.3 523.7 319.3 527C319.3 530.3 316.6 533 313.3 533ZM357.4 488C354.1 488 351.4 485.3 351.4 482C351.4 478.7 354.1 476 357.4 476C360.7 476 363.4 478.7 363.4 482C363.4 485.3 360.7 488 357.4 488ZM305.3 481C302 481 299.3 478.3 299.3 475C299.3 471.7 302 469 305.3 469C308.6 469 311.3 471.7 311.3 475C311.3 478.3 308.6 481 305.3 481ZM300.3 431C297 431 294.3 428.3 294.3 425C294.3 421.7 297 419 300.3 419C303.6 419 306.3 421.7 306.3 425C306.3 428.3 303.6 431 300.3 431ZM425.5 438C422.2 438 419.5 435.3 419.5 432C419.5 428.7 422.2 426 425.5 426C428.8 426 431.5 428.7 431.5 432C431.5 435.3 428.8 438 425.5 438ZM493.6 484C490.3 484 487.6 481.3 487.6 478C487.6 474.7 490.3 472 493.6 472C496.9 472 499.6 474.7 499.6 478C499.6 481.3 496.9 484 493.6 484ZM467.6 532C464.3 532 461.6 529.3 461.6 526C461.6 522.7 464.3 520 467.6 520C470.9 520 473.6 522.7 473.6 526C473.6 529.3 470.9 532 467.6 532ZM495.6 389C492.3 389 489.6 386.3 489.6 383C489.6 379.7 492.3 377 495.6 377C498.9 377 501.6 379.7 501.6 383C501.6 386.3 498.9 389 495.6 389ZM462.6 350C459.3 350 456.6 347.3 456.6 344C456.6 340.7 459.3 338 462.6 338C465.9 338 468.6 340.7 468.6 344C468.6 347.3 465.9 350 462.6 350ZM422.5 326C419.2 326 416.5 323.3 416.5 320C416.5 316.7 419.2 314 422.5 314C425.8 314 428.5 316.7 428.5 320C428.5 323.3 425.8 326 422.5 326ZM358.4 326C355.1 326 352.4 323.3 352.4 320C352.4 316.7 355.1 314 358.4 314C361.7 314 364.4 316.7 364.4 320C364.4 323.3 361.7 326 358.4 326ZM306.3 349C303 349 300.3 346.3 300.3 343C300.3 339.7 303 337 306.3 337C309.6 337 312.3 339.7 312.3 343C312.3 346.3 309.6 349 306.3 349ZM344.3 386C341 386 338.3 383.3 338.3 380C338.3 376.7 341 374 344.3 374C347.6 374 350.3 376.7 350.3 380C350.4 383.3 347.7 386 344.3 386ZM429.5 389C426.2 389 423.5 386.3 423.5 383C423.5 379.7 426.2 377 429.5 377C432.8 377 435.5 379.7 435.5 383C435.5 386.3 432.8 389 429.5 389Z" fill="white"/>
</g>
<g clip-path="url(#clip0_449_245)">
<path d="M776.387 264.496L795.437 197.523H804.666L799.326 223.561L778.826 293.5H769.663L776.387 264.496ZM756.677 197.523L771.838 263.178L776.387 293.5H767.29L744.021 197.523H756.677ZM829.319 263.112L844.15 197.523H856.873L833.669 293.5H824.573L829.319 263.112ZM806.05 197.523L824.573 264.496L831.296 293.5H822.134L802.358 223.561L796.953 197.523H806.05Z" fill="black"/>
<path d="M863.544 258.629V257.113C863.544 251.972 864.291 247.204 865.785 242.809C867.279 238.371 869.433 234.525 872.245 231.273C875.058 227.978 878.463 225.429 882.462 223.627C886.461 221.781 890.944 220.858 895.91 220.858C900.919 220.858 905.424 221.781 909.423 223.627C913.466 225.429 916.894 227.978 919.706 231.273C922.562 234.525 924.738 238.371 926.232 242.809C927.726 247.204 928.473 251.972 928.473 257.113V258.629C928.473 263.771 927.726 268.539 926.232 272.934C924.738 277.328 922.562 281.173 919.706 284.469C916.894 287.721 913.488 290.27 909.489 292.116C905.534 293.917 901.051 294.818 896.042 294.818C891.032 294.818 886.527 293.917 882.528 292.116C878.529 290.27 875.102 287.721 872.245 284.469C869.433 281.173 867.279 277.328 865.785 272.934C864.291 268.539 863.544 263.771 863.544 258.629ZM875.739 257.113V258.629C875.739 262.189 876.156 265.551 876.991 268.715C877.826 271.835 879.079 274.604 880.749 277.021C882.462 279.438 884.594 281.349 887.143 282.755C889.691 284.118 892.658 284.799 896.042 284.799C899.381 284.799 902.304 284.118 904.809 282.755C907.357 281.349 909.467 279.438 911.137 277.021C912.807 274.604 914.059 271.835 914.894 268.715C915.773 265.551 916.212 262.189 916.212 258.629V257.113C916.212 253.598 915.773 250.28 914.894 247.16C914.059 243.996 912.785 241.205 911.071 238.788C909.401 236.327 907.292 234.394 904.743 232.987C902.238 231.581 899.293 230.878 895.91 230.878C892.57 230.878 889.625 231.581 887.077 232.987C884.572 234.394 882.462 236.327 880.749 238.788C879.079 241.205 877.826 243.996 876.991 247.16C876.156 250.28 875.739 253.598 875.739 257.113Z" fill="black"/>
<path d="M955.711 233.383V293.5H943.516V222.177H955.381L955.711 233.383ZM977.991 221.781L977.925 233.119C976.915 232.899 975.948 232.768 975.025 232.724C974.146 232.636 973.135 232.592 971.993 232.592C969.18 232.592 966.697 233.031 964.544 233.91C962.391 234.789 960.567 236.02 959.073 237.602C957.579 239.184 956.392 241.073 955.513 243.271C954.678 245.424 954.129 247.797 953.865 250.39L950.438 252.367C950.438 248.061 950.855 244.018 951.69 240.238C952.569 236.459 953.909 233.119 955.711 230.219C957.513 227.274 959.798 224.989 962.566 223.363C965.379 221.693 968.719 220.858 972.586 220.858C973.465 220.858 974.476 220.968 975.618 221.188C976.761 221.364 977.552 221.562 977.991 221.781Z" fill="black"/>
<path d="M1001.27 192.25V293.5H989.013V192.25H1001.27ZM1044.85 222.177L1013.73 255.465L996.33 273.527L995.341 260.541L1007.8 245.644L1029.95 222.177H1044.85ZM1033.71 293.5L1008.26 259.486L1014.59 248.61L1048.08 293.5H1033.71Z" fill="black"/>
<path d="M1098.71 274.582C1098.71 272.824 1098.32 271.198 1097.53 269.704C1096.78 268.166 1095.22 266.781 1092.85 265.551C1090.52 264.276 1087 263.178 1082.3 262.255C1078.35 261.42 1074.76 260.431 1071.56 259.289C1068.39 258.146 1065.69 256.762 1063.45 255.136C1061.25 253.51 1059.56 251.598 1058.37 249.401C1057.19 247.204 1056.59 244.633 1056.59 241.688C1056.59 238.876 1057.21 236.217 1058.44 233.712C1059.71 231.208 1061.49 228.988 1063.78 227.055C1066.11 225.121 1068.9 223.605 1072.15 222.506C1075.4 221.408 1079.03 220.858 1083.03 220.858C1088.74 220.858 1093.62 221.869 1097.66 223.891C1101.7 225.912 1104.8 228.615 1106.95 231.999C1109.11 235.338 1110.18 239.052 1110.18 243.139H1097.99C1097.99 241.161 1097.4 239.25 1096.21 237.404C1095.07 235.514 1093.38 233.954 1091.13 232.724C1088.94 231.493 1086.23 230.878 1083.03 230.878C1079.64 230.878 1076.9 231.405 1074.79 232.46C1072.72 233.471 1071.2 234.767 1070.24 236.349C1069.31 237.931 1068.85 239.601 1068.85 241.359C1068.85 242.677 1069.07 243.864 1069.51 244.918C1070 245.929 1070.83 246.874 1072.02 247.753C1073.2 248.588 1074.87 249.379 1077.03 250.126C1079.18 250.873 1081.93 251.62 1085.27 252.367C1091.11 253.686 1095.92 255.268 1099.7 257.113C1103.48 258.959 1106.29 261.222 1108.14 263.903C1109.99 266.583 1110.91 269.835 1110.91 273.659C1110.91 276.779 1110.25 279.635 1108.93 282.228C1107.66 284.821 1105.79 287.062 1103.33 288.952C1100.91 290.797 1098.01 292.248 1094.63 293.302C1091.29 294.313 1087.53 294.818 1083.36 294.818C1077.07 294.818 1071.75 293.698 1067.4 291.457C1063.05 289.215 1059.76 286.315 1057.52 282.755C1055.27 279.196 1054.15 275.438 1054.15 271.483H1066.41C1066.59 274.823 1067.56 277.482 1069.31 279.459C1071.07 281.393 1073.23 282.777 1075.77 283.612C1078.32 284.403 1080.85 284.799 1083.36 284.799C1086.7 284.799 1089.49 284.359 1091.73 283.48C1094.01 282.602 1095.75 281.393 1096.93 279.855C1098.12 278.317 1098.71 276.559 1098.71 274.582Z" fill="black"/>
<path d="M1173.16 192.25V293.5H1160.9V192.25H1173.16Z" fill="black"/>
<path d="M1189.26 258.629V257.113C1189.26 251.972 1190.01 247.204 1191.5 242.809C1193 238.371 1195.15 234.525 1197.96 231.273C1200.77 227.978 1204.18 225.429 1208.18 223.627C1212.18 221.781 1216.66 220.858 1221.63 220.858C1226.64 220.858 1231.14 221.781 1235.14 223.627C1239.18 225.429 1242.61 227.978 1245.42 231.273C1248.28 234.525 1250.45 238.371 1251.95 242.809C1253.44 247.204 1254.19 251.972 1254.19 257.113V258.629C1254.19 263.771 1253.44 268.539 1251.95 272.934C1250.45 277.328 1248.28 281.173 1245.42 284.469C1242.61 287.721 1239.2 290.27 1235.21 292.116C1231.25 293.917 1226.77 294.818 1221.76 294.818C1216.75 294.818 1212.24 293.917 1208.25 292.116C1204.25 290.27 1200.82 287.721 1197.96 284.469C1195.15 281.173 1193 277.328 1191.5 272.934C1190.01 268.539 1189.26 263.771 1189.26 258.629ZM1201.46 257.113V258.629C1201.46 262.189 1201.87 265.551 1202.71 268.715C1203.54 271.835 1204.8 274.604 1206.47 277.021C1208.18 279.438 1210.31 281.349 1212.86 282.755C1215.41 284.118 1218.37 284.799 1221.76 284.799C1225.1 284.799 1228.02 284.118 1230.53 282.755C1233.07 281.349 1235.18 279.438 1236.85 277.021C1238.52 274.604 1239.78 271.835 1240.61 268.715C1241.49 265.551 1241.93 262.189 1241.93 258.629V257.113C1241.93 253.598 1241.49 250.28 1240.61 247.16C1239.78 243.996 1238.5 241.205 1236.79 238.788C1235.12 236.327 1233.01 234.394 1230.46 232.987C1227.95 231.581 1225.01 230.878 1221.63 230.878C1218.29 230.878 1215.34 231.581 1212.79 232.987C1210.29 234.394 1208.18 236.327 1206.47 238.788C1204.8 241.205 1203.54 243.996 1202.71 247.16C1201.87 250.28 1201.46 253.598 1201.46 257.113Z" fill="black"/>
<path d="M1297.78 284.799C1300.68 284.799 1303.36 284.206 1305.82 283.019C1308.28 281.833 1310.3 280.207 1311.88 278.141C1313.46 276.032 1314.36 273.637 1314.58 270.956H1326.19C1325.97 275.175 1324.54 279.108 1321.9 282.755C1319.31 286.359 1315.9 289.281 1311.68 291.522C1307.47 293.72 1302.83 294.818 1297.78 294.818C1292.41 294.818 1287.73 293.874 1283.73 291.984C1279.78 290.094 1276.48 287.501 1273.85 284.206C1271.25 280.91 1269.3 277.13 1267.98 272.868C1266.71 268.561 1266.07 264.013 1266.07 259.223V256.454C1266.07 251.664 1266.71 247.138 1267.98 242.875C1269.3 238.568 1271.25 234.767 1273.85 231.471C1276.48 228.175 1279.78 225.583 1283.73 223.693C1287.73 221.803 1292.41 220.858 1297.78 220.858C1303.36 220.858 1308.23 222.001 1312.41 224.286C1316.58 226.527 1319.86 229.604 1322.23 233.515C1324.65 237.382 1325.97 241.776 1326.19 246.698H1314.58C1314.36 243.754 1313.53 241.095 1312.08 238.722C1310.67 236.349 1308.74 234.459 1306.28 233.053C1303.86 231.603 1301.03 230.878 1297.78 230.878C1294.04 230.878 1290.9 231.625 1288.35 233.119C1285.84 234.569 1283.84 236.547 1282.35 239.052C1280.9 241.513 1279.85 244.259 1279.19 247.292C1278.57 250.28 1278.26 253.334 1278.26 256.454V259.223C1278.26 262.343 1278.57 265.419 1279.19 268.451C1279.8 271.483 1280.83 274.23 1282.28 276.691C1283.78 279.152 1285.78 281.129 1288.28 282.624C1290.83 284.074 1294 284.799 1297.78 284.799Z" fill="black"/>
<path d="M1381.7 281.305V244.589C1381.7 241.776 1381.13 239.337 1379.99 237.272C1378.89 235.163 1377.22 233.537 1374.98 232.394C1372.74 231.251 1369.97 230.68 1366.67 230.68C1363.6 230.68 1360.89 231.208 1358.57 232.262C1356.28 233.317 1354.48 234.701 1353.16 236.415C1351.89 238.129 1351.25 239.975 1351.25 241.952H1339.05C1339.05 239.403 1339.71 236.876 1341.03 234.372C1342.35 231.867 1344.24 229.604 1346.7 227.582C1349.21 225.517 1352.19 223.891 1355.67 222.704C1359.18 221.474 1363.09 220.858 1367.4 220.858C1372.58 220.858 1377.15 221.737 1381.11 223.495C1385.11 225.253 1388.23 227.912 1390.47 231.471C1392.75 234.987 1393.9 239.403 1393.9 244.721V277.943C1393.9 280.316 1394.1 282.843 1394.49 285.524C1394.93 288.205 1395.57 290.512 1396.4 292.445V293.5H1383.68C1383.06 292.094 1382.58 290.226 1382.23 287.897C1381.88 285.524 1381.7 283.327 1381.7 281.305ZM1383.81 250.258L1383.94 258.827H1371.62C1368.15 258.827 1365.05 259.113 1362.32 259.684C1359.6 260.211 1357.31 261.024 1355.47 262.123C1353.62 263.222 1352.22 264.606 1351.25 266.276C1350.28 267.902 1349.8 269.813 1349.8 272.011C1349.8 274.252 1350.3 276.295 1351.31 278.141C1352.33 279.987 1353.84 281.459 1355.86 282.558C1357.93 283.612 1360.46 284.14 1363.44 284.14C1367.18 284.14 1370.47 283.349 1373.33 281.767C1376.19 280.185 1378.45 278.251 1380.12 275.966C1381.83 273.681 1382.76 271.461 1382.89 269.308L1388.1 275.175C1387.79 277.021 1386.95 279.064 1385.59 281.305C1384.23 283.546 1382.41 285.7 1380.12 287.765C1377.88 289.787 1375.2 291.479 1372.08 292.841C1369 294.159 1365.53 294.818 1361.66 294.818C1356.83 294.818 1352.59 293.874 1348.94 291.984C1345.34 290.094 1342.53 287.567 1340.5 284.403C1338.53 281.195 1337.54 277.614 1337.54 273.659C1337.54 269.835 1338.28 266.474 1339.78 263.573C1341.27 260.629 1343.43 258.19 1346.24 256.256C1349.05 254.279 1352.44 252.785 1356.39 251.774C1360.35 250.763 1364.76 250.258 1369.64 250.258H1383.81Z" fill="black"/>
<path d="M1426.08 192.25V293.5H1413.82V192.25H1426.08Z" fill="black"/>
<path d="M1458.66 192.25V293.5H1446.4V192.25H1458.66Z" fill="black"/>
<path d="M1498.02 286.117L1517.86 222.177H1530.92L1502.31 304.508C1501.65 306.266 1500.77 308.156 1499.67 310.177C1498.62 312.243 1497.25 314.198 1495.58 316.044C1493.91 317.89 1491.89 319.384 1489.52 320.526C1487.19 321.713 1484.4 322.306 1481.15 322.306C1480.18 322.306 1478.95 322.174 1477.46 321.911C1475.96 321.647 1474.91 321.427 1474.29 321.251L1474.23 311.364C1474.58 311.408 1475.13 311.452 1475.87 311.496C1476.67 311.583 1477.21 311.627 1477.52 311.627C1480.29 311.627 1482.64 311.254 1484.58 310.507C1486.51 309.804 1488.14 308.595 1489.45 306.881C1490.82 305.211 1491.98 302.904 1492.95 299.96L1498.02 286.117ZM1483.46 222.177L1501.98 277.548L1505.14 290.402L1496.38 294.884L1470.14 222.177H1483.46Z" fill="black"/>
<path d="M1592.97 280.844L1611.3 222.177H1619.34L1617.76 233.844L1599.1 293.5H1591.26L1592.97 280.844ZM1580.65 222.177L1596.27 281.503L1597.39 293.5H1589.15L1568.45 222.177H1580.65ZM1636.87 281.042L1651.77 222.177H1663.9L1643.2 293.5H1635.03L1636.87 281.042ZM1621.12 222.177L1639.05 279.855L1641.09 293.5H1633.31L1614.13 233.712L1612.55 222.177H1621.12Z" fill="black"/>
<path d="M1689.42 222.177V293.5H1677.16V222.177H1689.42ZM1676.24 203.258C1676.24 201.281 1676.83 199.611 1678.02 198.249C1679.25 196.886 1681.05 196.205 1683.43 196.205C1685.75 196.205 1687.53 196.886 1688.76 198.249C1690.04 199.611 1690.68 201.281 1690.68 203.258C1690.68 205.148 1690.04 206.774 1688.76 208.136C1687.53 209.455 1685.75 210.114 1683.43 210.114C1681.05 210.114 1679.25 209.455 1678.02 208.136C1676.83 206.774 1676.24 205.148 1676.24 203.258Z" fill="black"/>
<path d="M1738.61 222.177V231.537H1700.05V222.177H1738.61ZM1713.1 204.84H1725.3V275.834C1725.3 278.251 1725.67 280.075 1726.42 281.305C1727.16 282.536 1728.13 283.349 1729.32 283.744C1730.5 284.14 1731.78 284.337 1733.14 284.337C1734.15 284.337 1735.21 284.25 1736.31 284.074C1737.45 283.854 1738.3 283.678 1738.88 283.546L1738.94 293.5C1737.98 293.808 1736.7 294.093 1735.12 294.357C1733.58 294.665 1731.71 294.818 1729.52 294.818C1726.53 294.818 1723.78 294.225 1721.28 293.039C1718.77 291.852 1716.77 289.875 1715.28 287.106C1713.83 284.293 1713.1 280.514 1713.1 275.768V204.84Z" fill="black"/>
<path d="M1764.86 192.25V293.5H1752.67V192.25H1764.86ZM1761.96 255.136L1756.89 254.938C1756.93 250.06 1757.65 245.556 1759.06 241.425C1760.47 237.25 1762.44 233.625 1764.99 230.548C1767.54 227.472 1770.57 225.099 1774.09 223.429C1777.65 221.715 1781.58 220.858 1785.89 220.858C1789.4 220.858 1792.57 221.342 1795.38 222.309C1798.19 223.231 1800.59 224.726 1802.57 226.791C1804.59 228.856 1806.13 231.537 1807.18 234.833C1808.24 238.085 1808.76 242.062 1808.76 246.764V293.5H1796.5V246.632C1796.5 242.897 1795.95 239.909 1794.85 237.667C1793.76 235.382 1792.15 233.734 1790.04 232.724C1787.93 231.669 1785.34 231.142 1782.26 231.142C1779.23 231.142 1776.46 231.779 1773.96 233.053C1771.5 234.328 1769.37 236.085 1767.56 238.327C1765.81 240.568 1764.42 243.139 1763.41 246.039C1762.44 248.896 1761.96 251.928 1761.96 255.136Z" fill="black"/>
</g>
<path d="M887.656 448.076V468.774H783.77V448.076H887.656ZM787.725 365.547V557.5H762.28V365.547H787.725ZM909.805 365.547V557.5H884.492V365.547H909.805Z" fill="black"/>
<path d="M944.623 487.759V484.727C944.623 474.443 946.117 464.907 949.105 456.118C952.094 447.241 956.4 439.551 962.025 433.047C967.65 426.455 974.462 421.357 982.46 417.754C990.458 414.062 999.423 412.217 1009.35 412.217C1019.37 412.217 1028.38 414.062 1036.38 417.754C1044.47 421.357 1051.32 426.455 1056.95 433.047C1062.66 439.551 1067.01 447.241 1070 456.118C1072.99 464.907 1074.48 474.443 1074.48 484.727V487.759C1074.48 498.042 1072.99 507.578 1070 516.367C1067.01 525.156 1062.66 532.847 1056.95 539.438C1051.32 545.942 1044.51 551.04 1036.51 554.731C1028.6 558.335 1019.64 560.137 1009.62 560.137C999.599 560.137 990.59 558.335 982.592 554.731C974.594 551.04 967.738 545.942 962.025 539.438C956.4 532.847 952.094 525.156 949.105 516.367C946.117 507.578 944.623 498.042 944.623 487.759ZM969.013 484.727V487.759C969.013 494.878 969.848 501.602 971.518 507.93C973.188 514.17 975.692 519.707 979.032 524.541C982.46 529.375 986.723 533.198 991.82 536.011C996.918 538.735 1002.85 540.098 1009.62 540.098C1016.3 540.098 1022.14 538.735 1027.15 536.011C1032.25 533.198 1036.47 529.375 1039.81 524.541C1043.15 519.707 1045.65 514.17 1047.32 507.93C1049.08 501.602 1049.96 494.878 1049.96 487.759V484.727C1049.96 477.695 1049.08 471.06 1047.32 464.819C1045.65 458.491 1043.1 452.91 1039.68 448.076C1036.34 443.154 1032.12 439.287 1027.02 436.475C1022.01 433.662 1016.12 432.256 1009.35 432.256C1002.67 432.256 996.786 433.662 991.688 436.475C986.679 439.287 982.46 443.154 979.032 448.076C975.692 452.91 973.188 458.491 971.518 464.819C969.848 471.06 969.013 477.695 969.013 484.727Z" fill="black"/>
<path d="M1129.08 443.198V557.5H1104.55V414.854H1127.76L1129.08 443.198ZM1124.07 480.771L1112.73 480.376C1112.82 470.62 1114.09 461.611 1116.55 453.35C1119.01 445 1122.66 437.749 1127.49 431.597C1132.33 425.444 1138.35 420.698 1145.55 417.358C1152.76 413.931 1161.11 412.217 1170.6 412.217C1177.28 412.217 1183.44 413.184 1189.06 415.117C1194.69 416.963 1199.56 419.907 1203.69 423.95C1207.83 427.993 1211.03 433.179 1213.32 439.507C1215.6 445.835 1216.75 453.481 1216.75 462.446V557.5H1192.36V463.633C1192.36 456.162 1191.08 450.186 1188.53 445.703C1186.07 441.221 1182.56 437.969 1177.99 435.947C1173.42 433.838 1168.05 432.783 1161.9 432.783C1154.7 432.783 1148.67 434.058 1143.84 436.606C1139.01 439.155 1135.14 442.671 1132.24 447.153C1129.34 451.636 1127.23 456.777 1125.91 462.578C1124.68 468.291 1124.07 474.355 1124.07 480.771ZM1216.48 467.324L1200.13 472.334C1200.22 464.512 1201.5 456.997 1203.96 449.79C1206.51 442.583 1210.15 436.167 1214.9 430.542C1219.73 424.917 1225.67 420.479 1232.7 417.227C1239.73 413.887 1247.77 412.217 1256.82 412.217C1264.47 412.217 1271.24 413.228 1277.13 415.249C1283.1 417.271 1288.11 420.391 1292.16 424.609C1296.29 428.74 1299.41 434.058 1301.52 440.562C1303.63 447.065 1304.68 454.8 1304.68 463.765V557.5H1280.16V463.501C1280.16 455.503 1278.88 449.307 1276.34 444.912C1273.88 440.43 1270.36 437.31 1265.79 435.552C1261.31 433.706 1255.95 432.783 1249.71 432.783C1244.34 432.783 1239.6 433.706 1235.47 435.552C1231.34 437.397 1227.86 439.946 1225.05 443.198C1222.24 446.362 1220.09 450.01 1218.59 454.141C1217.19 458.271 1216.48 462.666 1216.48 467.324Z" fill="black"/>
<path d="M1400.54 560.137C1390.61 560.137 1381.6 558.467 1373.51 555.127C1365.51 551.699 1358.62 546.909 1352.81 540.757C1347.1 534.604 1342.71 527.31 1339.63 518.872C1336.55 510.435 1335.02 501.206 1335.02 491.187V485.649C1335.02 474.048 1336.73 463.721 1340.16 454.668C1343.59 445.527 1348.24 437.793 1354.13 431.465C1360.02 425.137 1366.7 420.347 1374.17 417.095C1381.64 413.843 1389.38 412.217 1397.38 412.217C1407.57 412.217 1416.36 413.975 1423.74 417.49C1431.21 421.006 1437.32 425.928 1442.07 432.256C1446.81 438.496 1450.33 445.879 1452.61 454.404C1454.9 462.842 1456.04 472.07 1456.04 482.09V493.032H1349.52V473.125H1431.65V471.279C1431.3 464.951 1429.98 458.799 1427.7 452.822C1425.5 446.846 1421.98 441.924 1417.15 438.057C1412.32 434.189 1405.72 432.256 1397.38 432.256C1391.84 432.256 1386.74 433.442 1382.08 435.815C1377.42 438.101 1373.42 441.528 1370.08 446.099C1366.75 450.669 1364.15 456.25 1362.31 462.842C1360.46 469.434 1359.54 477.036 1359.54 485.649V491.187C1359.54 497.954 1360.46 504.326 1362.31 510.303C1364.24 516.191 1367.01 521.377 1370.61 525.859C1374.3 530.342 1378.74 533.857 1383.93 536.406C1389.2 538.955 1395.18 540.229 1401.86 540.229C1410.47 540.229 1417.77 538.472 1423.74 534.956C1429.72 531.44 1434.95 526.738 1439.43 520.85L1454.2 532.583C1451.12 537.241 1447.21 541.68 1442.46 545.898C1437.72 550.117 1431.87 553.545 1424.93 556.182C1418.07 558.818 1409.94 560.137 1400.54 560.137Z" fill="black"/>
<path d="M1625.74 382.554L1562.2 557.5H1536.23L1609.39 365.547H1626.14L1625.74 382.554ZM1679 557.5L1615.33 382.554L1614.93 365.547H1631.67L1705.11 557.5H1679ZM1675.71 486.44V507.271H1567.87V486.44H1675.71Z" fill="black"/>
<path d="M1809.93 519.663C1809.93 516.147 1809.14 512.896 1807.56 509.907C1806.06 506.831 1802.94 504.062 1798.2 501.602C1793.54 499.053 1786.51 496.855 1777.1 495.01C1769.19 493.34 1762.03 491.362 1755.61 489.077C1749.29 486.792 1743.88 484.023 1739.4 480.771C1735 477.52 1731.62 473.696 1729.25 469.302C1726.87 464.907 1725.69 459.766 1725.69 453.877C1725.69 448.252 1726.92 442.935 1729.38 437.925C1731.93 432.915 1735.49 428.477 1740.06 424.609C1744.72 420.742 1750.3 417.71 1756.8 415.513C1763.3 413.315 1770.56 412.217 1778.55 412.217C1789.98 412.217 1799.74 414.238 1807.82 418.281C1815.91 422.324 1822.1 427.729 1826.41 434.497C1830.72 441.177 1832.87 448.604 1832.87 456.777H1808.48C1808.48 452.822 1807.29 448.999 1804.92 445.308C1802.64 441.528 1799.25 438.408 1794.77 435.947C1790.38 433.486 1784.97 432.256 1778.55 432.256C1771.79 432.256 1766.29 433.311 1762.07 435.42C1757.94 437.441 1754.91 440.034 1752.98 443.198C1751.13 446.362 1750.21 449.702 1750.21 453.218C1750.21 455.854 1750.65 458.228 1751.53 460.337C1752.49 462.358 1754.16 464.248 1756.54 466.006C1758.91 467.676 1762.25 469.258 1766.56 470.752C1770.86 472.246 1776.36 473.74 1783.04 475.234C1794.73 477.871 1804.35 481.035 1811.91 484.727C1819.47 488.418 1825.09 492.944 1828.78 498.306C1832.47 503.667 1834.32 510.171 1834.32 517.817C1834.32 524.058 1833 529.771 1830.37 534.956C1827.82 540.142 1824.08 544.624 1819.16 548.403C1814.33 552.095 1808.52 554.995 1801.76 557.104C1795.08 559.126 1787.56 560.137 1779.21 560.137C1766.64 560.137 1756.01 557.896 1747.31 553.413C1738.61 548.931 1732.02 543.13 1727.53 536.011C1723.05 528.892 1720.81 521.377 1720.81 513.467H1745.33C1745.68 520.146 1747.62 525.464 1751.13 529.419C1754.65 533.286 1758.95 536.055 1764.05 537.725C1769.15 539.307 1774.2 540.098 1779.21 540.098C1785.89 540.098 1791.47 539.219 1795.96 537.461C1800.53 535.703 1804 533.286 1806.37 530.21C1808.74 527.134 1809.93 523.618 1809.93 519.663Z" fill="black"/>
<path d="M1949.16 519.663C1949.16 516.147 1948.37 512.896 1946.79 509.907C1945.3 506.831 1942.18 504.062 1937.43 501.602C1932.77 499.053 1925.74 496.855 1916.34 495.01C1908.43 493.34 1901.26 491.362 1894.85 489.077C1888.52 486.792 1883.11 484.023 1878.63 480.771C1874.24 477.52 1870.85 473.696 1868.48 469.302C1866.11 464.907 1864.92 459.766 1864.92 453.877C1864.92 448.252 1866.15 442.935 1868.61 437.925C1871.16 432.915 1874.72 428.477 1879.29 424.609C1883.95 420.742 1889.53 417.71 1896.03 415.513C1902.54 413.315 1909.79 412.217 1917.79 412.217C1929.21 412.217 1938.97 414.238 1947.05 418.281C1955.14 422.324 1961.34 427.729 1965.64 434.497C1969.95 441.177 1972.1 448.604 1972.1 456.777H1947.71C1947.71 452.822 1946.53 448.999 1944.15 445.308C1941.87 441.528 1938.48 438.408 1934 435.947C1929.61 433.486 1924.2 432.256 1917.79 432.256C1911.02 432.256 1905.53 433.311 1901.31 435.42C1897.18 437.441 1894.14 440.034 1892.21 443.198C1890.36 446.362 1889.44 449.702 1889.44 453.218C1889.44 455.854 1889.88 458.228 1890.76 460.337C1891.73 462.358 1893.4 464.248 1895.77 466.006C1898.14 467.676 1901.48 469.258 1905.79 470.752C1910.1 472.246 1915.59 473.74 1922.27 475.234C1933.96 477.871 1943.58 481.035 1951.14 484.727C1958.7 488.418 1964.32 492.944 1968.02 498.306C1971.71 503.667 1973.55 510.171 1973.55 517.817C1973.55 524.058 1972.23 529.771 1969.6 534.956C1967.05 540.142 1963.31 544.624 1958.39 548.403C1953.56 552.095 1947.76 554.995 1940.99 557.104C1934.31 559.126 1926.79 560.137 1918.45 560.137C1905.88 560.137 1895.24 557.896 1886.54 553.413C1877.84 548.931 1871.25 543.13 1866.77 536.011C1862.28 528.892 1860.04 521.377 1860.04 513.467H1884.56C1884.92 520.146 1886.85 525.464 1890.36 529.419C1893.88 533.286 1898.19 536.055 1903.28 537.725C1908.38 539.307 1913.44 540.098 1918.45 540.098C1925.12 540.098 1930.71 539.219 1935.19 537.461C1939.76 535.703 1943.23 533.286 1945.6 530.21C1947.98 527.134 1949.16 523.618 1949.16 519.663Z" fill="black"/>
<path d="M2031.84 414.854V557.5H2007.32V414.854H2031.84ZM2005.47 377.017C2005.47 373.062 2006.66 369.722 2009.03 366.997C2011.49 364.272 2015.09 362.91 2019.84 362.91C2024.5 362.91 2028.06 364.272 2030.52 366.997C2033.07 369.722 2034.34 373.062 2034.34 377.017C2034.34 380.796 2033.07 384.048 2030.52 386.772C2028.06 389.409 2024.5 390.728 2019.84 390.728C2015.09 390.728 2011.49 389.409 2009.03 386.772C2006.66 384.048 2005.47 380.796 2005.47 377.017Z" fill="black"/>
<path d="M2153.8 519.663C2153.8 516.147 2153.01 512.896 2151.43 509.907C2149.93 506.831 2146.81 504.062 2142.07 501.602C2137.41 499.053 2130.38 496.855 2120.97 495.01C2113.06 493.34 2105.9 491.362 2099.48 489.077C2093.16 486.792 2087.75 484.023 2083.27 480.771C2078.87 477.52 2075.49 473.696 2073.12 469.302C2070.74 464.907 2069.56 459.766 2069.56 453.877C2069.56 448.252 2070.79 442.935 2073.25 437.925C2075.8 432.915 2079.36 428.477 2083.93 424.609C2088.58 420.742 2094.17 417.71 2100.67 415.513C2107.17 413.315 2114.42 412.217 2122.42 412.217C2133.85 412.217 2143.6 414.238 2151.69 418.281C2159.78 422.324 2165.97 427.729 2170.28 434.497C2174.59 441.177 2176.74 448.604 2176.74 456.777H2152.35C2152.35 452.822 2151.16 448.999 2148.79 445.308C2146.5 441.528 2143.12 438.408 2138.64 435.947C2134.24 433.486 2128.84 432.256 2122.42 432.256C2115.66 432.256 2110.16 433.311 2105.94 435.42C2101.81 437.441 2098.78 440.034 2096.85 443.198C2095 446.362 2094.08 449.702 2094.08 453.218C2094.08 455.854 2094.52 458.228 2095.4 460.337C2096.36 462.358 2098.03 464.248 2100.41 466.006C2102.78 467.676 2106.12 469.258 2110.43 470.752C2114.73 472.246 2120.23 473.74 2126.91 475.234C2138.59 477.871 2148.22 481.035 2155.78 484.727C2163.34 488.418 2168.96 492.944 2172.65 498.306C2176.34 503.667 2178.19 510.171 2178.19 517.817C2178.19 524.058 2176.87 529.771 2174.23 534.956C2171.69 540.142 2167.95 544.624 2163.03 548.403C2158.19 552.095 2152.39 554.995 2145.63 557.104C2138.95 559.126 2131.43 560.137 2123.08 560.137C2110.51 560.137 2099.88 557.896 2091.18 553.413C2082.48 548.931 2075.88 543.13 2071.4 536.011C2066.92 528.892 2064.68 521.377 2064.68 513.467H2089.2C2089.55 520.146 2091.49 525.464 2095 529.419C2098.52 533.286 2102.82 536.055 2107.92 537.725C2113.02 539.307 2118.07 540.098 2123.08 540.098C2129.76 540.098 2135.34 539.219 2139.83 537.461C2144.4 535.703 2147.87 533.286 2150.24 530.21C2152.61 527.134 2153.8 523.618 2153.8 519.663Z" fill="black"/>
<path d="M2269.7 414.854V433.574H2192.57V414.854H2269.7ZM2218.68 380.181H2243.07V522.168C2243.07 527.002 2243.81 530.649 2245.31 533.11C2246.8 535.571 2248.74 537.197 2251.11 537.988C2253.48 538.779 2256.03 539.175 2258.75 539.175C2260.78 539.175 2262.89 538.999 2265.08 538.647C2267.37 538.208 2269.08 537.856 2270.22 537.593L2270.36 557.5C2268.42 558.115 2265.87 558.687 2262.71 559.214C2259.63 559.829 2255.9 560.137 2251.5 560.137C2245.53 560.137 2240.03 558.95 2235.02 556.577C2230.01 554.204 2226.02 550.249 2223.03 544.712C2220.13 539.087 2218.68 531.528 2218.68 522.036V380.181Z" fill="black"/>
<path d="M2382.17 533.11V459.678C2382.17 454.053 2381.02 449.175 2378.74 445.044C2376.54 440.825 2373.2 437.573 2368.72 435.288C2364.24 433.003 2358.7 431.86 2352.11 431.86C2345.96 431.86 2340.55 432.915 2335.89 435.024C2331.32 437.134 2327.72 439.902 2325.08 443.33C2322.53 446.758 2321.26 450.449 2321.26 454.404H2296.87C2296.87 449.307 2298.19 444.253 2300.82 439.243C2303.46 434.233 2307.24 429.707 2312.16 425.664C2317.17 421.533 2323.15 418.281 2330.09 415.908C2337.12 413.447 2344.95 412.217 2353.56 412.217C2363.93 412.217 2373.07 413.975 2380.98 417.49C2388.98 421.006 2395.22 426.323 2399.7 433.442C2404.27 440.474 2406.56 449.307 2406.56 459.941V526.387C2406.56 531.133 2406.95 536.187 2407.74 541.548C2408.62 546.909 2409.9 551.523 2411.57 555.391V557.5H2386.12C2384.89 554.688 2383.92 550.952 2383.22 546.294C2382.52 541.548 2382.17 537.153 2382.17 533.11ZM2386.39 471.016L2386.65 488.154H2362C2355.05 488.154 2348.86 488.726 2343.41 489.868C2337.96 490.923 2333.39 492.549 2329.7 494.746C2326 496.943 2323.19 499.712 2321.26 503.052C2319.33 506.304 2318.36 510.127 2318.36 514.521C2318.36 519.004 2319.37 523.091 2321.39 526.782C2323.41 530.474 2326.44 533.418 2330.49 535.615C2334.62 537.725 2339.67 538.779 2345.65 538.779C2353.12 538.779 2359.71 537.197 2365.42 534.033C2371.14 530.869 2375.66 527.002 2379 522.432C2382.43 517.861 2384.28 513.423 2384.54 509.116L2394.96 520.85C2394.34 524.541 2392.67 528.628 2389.95 533.11C2387.22 537.593 2383.57 541.899 2379 546.03C2374.52 550.073 2369.16 553.457 2362.92 556.182C2356.77 558.818 2349.82 560.137 2342.09 560.137C2332.42 560.137 2323.94 558.247 2316.64 554.468C2309.44 550.688 2303.81 545.635 2299.77 539.307C2295.81 532.891 2293.84 525.728 2293.84 517.817C2293.84 510.171 2295.33 503.447 2298.32 497.646C2301.31 491.758 2305.61 486.88 2311.24 483.013C2316.86 479.058 2323.63 476.069 2331.54 474.048C2339.45 472.026 2348.29 471.016 2358.04 471.016H2386.39Z" fill="black"/>
<path d="M2469.06 445.308V557.5H2444.67V414.854H2467.74L2469.06 445.308ZM2463.26 480.771L2453.11 480.376C2453.2 470.62 2454.65 461.611 2457.46 453.35C2460.27 445 2464.23 437.749 2469.32 431.597C2474.42 425.444 2480.49 420.698 2487.52 417.358C2494.64 413.931 2502.5 412.217 2511.12 412.217C2518.15 412.217 2524.48 413.184 2530.1 415.117C2535.73 416.963 2540.52 419.951 2544.47 424.082C2548.51 428.213 2551.59 433.574 2553.7 440.166C2555.81 446.67 2556.86 454.624 2556.86 464.028V557.5H2532.34V463.765C2532.34 456.294 2531.24 450.317 2529.05 445.835C2526.85 441.265 2523.64 437.969 2519.42 435.947C2515.2 433.838 2510.02 432.783 2503.87 432.783C2497.8 432.783 2492.26 434.058 2487.25 436.606C2482.33 439.155 2478.07 442.671 2474.47 447.153C2470.95 451.636 2468.18 456.777 2466.16 462.578C2464.23 468.291 2463.26 474.355 2463.26 480.771Z" fill="black"/>
<path d="M2653.38 414.854V433.574H2576.26V414.854H2653.38ZM2602.36 380.181H2626.75V522.168C2626.75 527.002 2627.5 530.649 2628.99 533.11C2630.49 535.571 2632.42 537.197 2634.79 537.988C2637.17 538.779 2639.71 539.175 2642.44 539.175C2644.46 539.175 2646.57 538.999 2648.77 538.647C2651.05 538.208 2652.77 537.856 2653.91 537.593L2654.04 557.5C2652.11 558.115 2649.56 558.687 2646.39 559.214C2643.32 559.829 2639.58 560.137 2635.19 560.137C2629.21 560.137 2623.72 558.95 2618.71 556.577C2613.7 554.204 2609.7 550.249 2606.71 544.712C2603.81 539.087 2602.36 531.528 2602.36 522.036V380.181Z" fill="black"/>
<defs>
<filter id="filter0_d_449_245" x="156" y="190.938" width="469.088" height="422.062" filterUnits="userSpaceOnUse" color-interpolation-filters="sRGB">
<feFlood flood-opacity="0" result="BackgroundImageFix"/>
<feColorMatrix in="SourceAlpha" type="matrix" values="0 0 0 0 0 0 0 0 0 0 0 0 0 0 0 0 0 0 127 0" result="hardAlpha"/>
<feOffset dy="17"/>
<feGaussianBlur stdDeviation="18"/>
<feComposite in2="hardAlpha" operator="out"/>
<feColorMatrix type="matrix" values="0 0 0 0 0 0 0 0 0 0 0 0 0 0 0 0 0 0 0.2 0"/>
<feBlend mode="normal" in2="BackgroundImageFix" result="effect1_dropShadow_449_245"/>
<feBlend mode="normal" in="SourceGraphic" in2="effect1_dropShadow_449_245" result="shape"/>
</filter>
<clipPath id="clip0_449_245">
<rect width="1078" height="135" fill="white" transform="translate(740 179.5)"/>
</clipPath>
</defs>
</svg>
